<svg width="25" height="24" viewBox="0 0 25 24" fill="none" xmlns="http://www.w3.org/2000/svg">
<g id="Layer 2">
<g id="shopping-bag">
<path id="Vector" d="M20.62 6.71L17.79 3.88C17.2279 3.31723 16.4654 3.0007 15.67 3H9.33C8.53462 3.0007 7.77207 3.31723 7.21 3.88L4.38 6.71C3.81723 7.27207 3.5007 8.03462 3.5 8.83V18C3.5 18.7956 3.81607 19.5587 4.37868 20.1213C4.94129 20.6839 5.70435 21 6.5 21H18.5C19.2956 21 20.0587 20.6839 20.6213 20.1213C21.1839 19.5587 21.5 18.7956 21.5 18V8.83C21.4993 8.03462 21.1828 7.27207 20.62 6.71ZM8.62 5.29C8.81163 5.10727 9.06523 5.00368 9.33 5H15.67C15.9348 5.00368 16.1884 5.10727 16.38 5.29L18.09 7H6.91L8.62 5.29ZM18.5 19H6.5C6.23478 19 5.98043 18.8946 5.79289 18.7071C5.60536 18.5196 5.5 18.2652 5.5 18V9H19.5V18C19.5 18.2652 19.3946 18.5196 19.2071 18.7071C19.0196 18.8946 18.7652 19 18.5 19Z" fill="white"/>
<path id="Vector_2" d="M15.5 11C15.2348 11 14.9804 11.1054 14.7929 11.2929C14.6054 11.4804 14.5 11.7348 14.5 12C14.5 12.5304 14.2893 13.0391 13.9142 13.4142C13.5391 13.7893 13.0304 14 12.5 14C11.9696 14 11.4609 13.7893 11.0858 13.4142C10.7107 13.0391 10.5 12.5304 10.5 12C10.5 11.7348 10.3946 11.4804 10.2071 11.2929C10.0196 11.1054 9.76522 11 9.5 11C9.23478 11 8.98043 11.1054 8.79289 11.2929C8.60536 11.4804 8.5 11.7348 8.5 12C8.5 13.0609 8.92143 14.0783 9.67157 14.8284C10.4217 15.5786 11.4391 16 12.5 16C13.5609 16 14.5783 15.5786 15.3284 14.8284C16.0786 14.0783 16.5 13.0609 16.5 12C16.5 11.7348 16.3946 11.4804 16.2071 11.2929C16.0196 11.1054 15.7652 11 15.5 11Z" fill="white"/>
</g>
</g>
</svg>
