<svg width="34" height="34" viewBox="0 0 34 34" fill="none" xmlns="http://www.w3.org/2000/svg">
<g id="Layer 2">
<g id="person">
<path id="Vector" d="M16.9999 15.5833C18.1207 15.5833 19.2163 15.251 20.1481 14.6283C21.08 14.0057 21.8063 13.1207 22.2352 12.0852C22.6641 11.0498 22.7764 9.91038 22.5577 8.81116C22.3391 7.71193 21.7994 6.70223 21.0069 5.90973C20.2144 5.11723 19.2047 4.57754 18.1054 4.35889C17.0062 4.14024 15.8668 4.25246 14.8314 4.68135C13.7959 5.11025 12.9109 5.83656 12.2883 6.76844C11.6656 7.70032 11.3333 8.79591 11.3333 9.91667C11.3333 11.4196 11.9303 12.8609 12.993 13.9236C14.0557 14.9863 15.497 15.5833 16.9999 15.5833ZM16.9999 7.08334C17.5603 7.08334 18.1081 7.24951 18.574 7.56084C19.04 7.87217 19.4031 8.31467 19.6176 8.8324C19.832 9.35012 19.8881 9.91981 19.7788 10.4694C19.6695 11.019 19.3996 11.5239 19.0034 11.9201C18.6071 12.3164 18.1023 12.5862 17.5527 12.6956C17.0031 12.8049 16.4334 12.7488 15.9156 12.5343C15.3979 12.3199 14.9554 11.9567 14.6441 11.4908C14.3328 11.0248 14.1666 10.477 14.1666 9.91667C14.1666 9.16522 14.4651 8.44455 14.9965 7.9132C15.5278 7.38185 16.2485 7.08334 16.9999 7.08334Z" fill="#010101"/>
<path id="Vector_2" d="M16.9999 18.4167C14.3699 18.4167 11.8475 19.4614 9.98778 21.3212C8.12804 23.1809 7.08325 25.7033 7.08325 28.3333C7.08325 28.709 7.23251 29.0694 7.49818 29.3351C7.76386 29.6007 8.1242 29.75 8.49992 29.75C8.87564 29.75 9.23598 29.6007 9.50165 29.3351C9.76733 29.0694 9.91659 28.709 9.91659 28.3333C9.91659 26.4547 10.6629 24.653 11.9912 23.3247C13.3196 21.9963 15.1213 21.25 16.9999 21.25C18.8785 21.25 20.6802 21.9963 22.0086 23.3247C23.337 24.653 24.0833 26.4547 24.0833 28.3333C24.0833 28.709 24.2325 29.0694 24.4982 29.3351C24.7639 29.6007 25.1242 29.75 25.4999 29.75C25.8756 29.75 26.236 29.6007 26.5017 29.3351C26.7673 29.0694 26.9166 28.709 26.9166 28.3333C26.9166 25.7033 25.8718 23.1809 24.0121 21.3212C22.1523 19.4614 19.63 18.4167 16.9999 18.4167Z" fill="#010101"/>
</g>
</g>
</svg>
