<svg width="34" height="34" viewBox="0 0 34 34" fill="none" xmlns="http://www.w3.org/2000/svg">
<g id="Layer 2">
<g id="shopping-cart">
<path id="Vector" d="M29.8633 9.91667C29.6185 9.49255 29.2679 9.13911 28.8459 8.89083C28.4238 8.64254 27.9445 8.50789 27.4549 8.50001H9.32159L8.49992 5.29834C8.4169 4.98928 8.23169 4.71743 7.97444 4.52707C7.7172 4.33671 7.40308 4.23905 7.08325 4.25001H4.24992C3.8742 4.25001 3.51386 4.39926 3.24818 4.66494C2.98251 4.93062 2.83325 5.29095 2.83325 5.66667C2.83325 6.0424 2.98251 6.40273 3.24818 6.66841C3.51386 6.93408 3.8742 7.08334 4.24992 7.08334H6.00658L9.91658 21.6183C9.9996 21.9274 10.1848 22.1993 10.4421 22.3896C10.6993 22.58 11.0134 22.6776 11.3333 22.6667H24.0833C24.3449 22.6659 24.6011 22.5927 24.8237 22.4551C25.0462 22.3176 25.2264 22.1211 25.3441 21.8875L29.9908 12.5942C30.1922 12.172 30.2859 11.7066 30.2637 11.2394C30.2414 10.7722 30.1039 10.3178 29.8633 9.91667ZM23.2049 19.8333H12.4099L10.1008 11.3333H27.4549L23.2049 19.8333Z" fill="#010101"/>
<path id="Vector_2" d="M10.625 29.75C11.7986 29.75 12.75 28.7986 12.75 27.625C12.75 26.4514 11.7986 25.5 10.625 25.5C9.45139 25.5 8.5 26.4514 8.5 27.625C8.5 28.7986 9.45139 29.75 10.625 29.75Z" fill="#010101"/>
<path id="Vector_3" d="M24.7917 29.75C25.9654 29.75 26.9167 28.7986 26.9167 27.625C26.9167 26.4514 25.9654 25.5 24.7917 25.5C23.6181 25.5 22.6667 26.4514 22.6667 27.625C22.6667 28.7986 23.6181 29.75 24.7917 29.75Z" fill="#010101"/>
</g>
</g>
</svg>
